<svg xmlns="http://www.w3.org/2000/svg" width="342" height="206" fill="none">
    <path fill="#F2F2F2" d="m173.171 151.845-.013 13.938-10.703-16.248 10.716 2.31Z"/>
    <path fill="#F2F2F2" d="M110.904 150.289s-.921-68.468-.261-68.474c.66-.007 61.595.455 61.595.455l.934 69.576-62.268-1.557Z"/>
    <path fill="#64B9FF" d="m168.099 133.439-10.901-.197-17.256-.31-16.125-.291-8.127-.145s-.692-45.124-.127-45.13c.292 0 14.729.063 28.296.12 12.12.056 23.541.1 23.541.1l.699 45.853Z"/>
    <path fill="#fff" d="M157.204 133.242c2.197-2.608 5.651-7.184 4.737-9.178-1.727-3.772-5.022-.405-10.057-1.842-3.999-1.145-6.095-5.551-6.393-11.134-3.746.152-5.974-.595-8.202-3.595 4.533-4.785 7.231-8.09 7.65-11.615.47-3.987 1.53-7.969 2.088-8.456 12.12.057 20.373.158 20.373.158l.699 45.858-10.895-.196Z"/>
    <path fill="#006CED" d="M160.252 91.663c.482-.538 1.543-.14 1.486.601-.229 3.096 1.333 6.28 3.885 8.058a6.642 6.642 0 0 0 1.987.968l-.209-13.71s-8.692-.031-18.951-.082c.444 4.773 8.329 8.058 11.802 4.165Z"/>
    <path stroke="#006CED" stroke-linecap="round" stroke-linejoin="round" stroke-miterlimit="10" stroke-width=".636" d="M154.881 117.615c3.028-.898 5.511-3.43 6.342-6.469"/>
    <path fill="#fff" d="m139.942 132.927-16.125-.291c-4.006-9.482-9.187-27.616-5.568-23.458 1.39 2.798 2.444 4.481 3.841 7.279-3.276-8.773-3.701-12.969-.883-10.501 1.829 4.317 1.968 4.95 3.797 9.267-2.292-7.336-2.133-14.299-.07-9.621 2.59 5.874 6.615 15.292 7.898 14.134 1.644-2.715.806-1.253 2.514-4.988 1.574-3.032 3.028-1.221 2.558 3.773-.361 3.918-.171 9.247 2.038 14.406Z"/>
    <path stroke="#006CED" stroke-linecap="round" stroke-linejoin="round" stroke-miterlimit="10" stroke-width=".636" d="M131.163 120.236c-1.098 1.07-1.479 2.811-.933 4.241M154.646 99.462c0-.494 0-1 .171-1.462.172-.463.559-.88 1.054-.937.496-.064.978.253 1.257.67.28.412.394.912.508 1.4M147.491 139.104c6.469.146 12.945.286 19.414.432M121.709 115.969c.381.652.769 1.304 1.15 1.956M123.525 110.684c.749 2.285 1.498 4.576 2.241 6.861M148.113 143.572c2.984.077 5.968.147 8.952.223"/>
    <path fill="#F2F2F2" d="m175.208 88.251-.92-32.585c-.026-3.519 2.831-6.393 6.368-6.393h58.306c3.72 0 6.647 3.172 6.342 6.868l-.768 9.317a6.355 6.355 0 0 1-6.342 5.824h-57.71l-5.276 16.97Z"/>
    <path fill="#fff" d="M218.444 58.255c-1.613-3.216-4.692-2.171-4.768-.14-.077 2.032 4.914 7.792 4.914 7.792s2.99-4.196 3.993-6.64c.876-2.139-1.619-4.81-4.139-1.012Z"/>
    <path fill="#006CED" d="M203.707 58.255c-1.612-3.216-4.691-2.171-4.768-.14-.082 2.039 4.914 7.792 4.914 7.792s2.991-4.196 3.994-6.64c.869-2.139-1.619-4.81-4.14-1.012ZM188.972 58.255c-1.612-3.216-4.691-2.171-4.768-.14-.076 2.039 4.914 7.792 4.914 7.792s2.991-4.196 3.994-6.64c.869-2.139-1.619-4.81-4.14-1.012Z"/>
    <path fill="#F2F2F2" d="m173.171 183.139-8.126.007-47.253.038-.013.297-6.603-.088.007-.209.355-11.096h61.392l.241 11.051Z"/>
    <path fill="#B0DFFF" d="m165.045 183.146-47.253.038.184-5.791h46.942l.127 5.753ZM195.544 44.278l.571-39.655 29.528.234c3.447.026 6.216 2.836 6.177 6.273l-.228 23.166-30.334-.57-5.714 10.552Z"/>
    <path fill="#FF391F" d="M212.927 15.509c-3.047-6.07-8.856-4.108-9.009-.26-.152 3.849 9.276 14.71 9.276 14.71s5.644-7.924 7.536-12.532c1.657-4.045-3.048-9.09-7.803-1.918Z"/>
    <path fill="#020202" d="m87.947 169.29 19.833-31.034h25.319l-18.634 30.091-26.518.943Z"/>
    <path stroke="#fff" stroke-linecap="round" stroke-linejoin="round" stroke-miterlimit="10" stroke-width=".636" d="M113.615 148.902c1.327-1.386 3.714-1.601 5.263-.462 1.549 1.133 2.07 3.462 1.143 5.146-.927 1.684-3.181 2.494-4.971 1.791"/>
    <path fill="#B0DFFF" d="M89.971 126.274c13.987-11.551 23.935 2.823 22.881 4.488-1.022 1.608-1.339 3.26-2.19 3.089-.514.253 1.727 3.684.812 3.842-1.288.215-2.958-2.64-4.044-4.988 0 0-1.409 1.741-4.577-.816-3.225-2.602-13.174 8.608-27.515 22.014l-1.499-14.064c.007.006 11.168-9.457 16.132-13.565Z"/>
    <path stroke="#FF391F" stroke-linecap="round" stroke-linejoin="round" stroke-miterlimit="10" stroke-width=".636" d="M103.38 128.957a8.312 8.312 0 0 1 3.886 3.051M109.194 129.578l1.315 3.874M110.611 128.566a3.932 3.932 0 0 1 1.073 3.127"/>
    <path fill="#006CED" d="M41.526 183.341h43.342c-2.183-9.957-6.9-30.895-11.427-47.688 4.666-4.956-6.317-21.685-8.38-24.059-5.848-6.734-15.644-5.57-15.644-5.57-3.27 1.652-14.92 12.584-11.123 47.118 1.696 15.387 2.667 24.654 3.232 30.199Z"/>
    <path stroke="#64B9FF" stroke-linecap="round" stroke-linejoin="round" stroke-miterlimit="10" stroke-width=".636" d="M61.485 139.279a8.237 8.237 0 0 0 4.533-4.912"/>
    <path fill="#B0DFFF" d="M74.742 71.079c-1.39-.987-2.984-1.24-4.787-.646-2 .659-3.695 1.981-5.396 3.165-2.006 1.399-4.032 2.76-6.133 4.02-2.14 1.284-4.355 2.45-6.66 3.418-.8.335-1.612.639-2.438.917.254 2.988 1.41 6.444 3.428 11.121 4.184 9.678-2.425 12.324-3.345 12.938 0 0 1.542 5.013 7.383 8.874 5.263 3.482 8.888.095 8.26-3.304-4.743-7.291-1.606-10.032 5.923-12.406 10.107-3.184 11.053-18.995 3.765-28.097Z"/>
    <path fill="#020202" d="M77.052 74.72c-1.06-2.12-2.457-4.064-4.196-5.672-1.143-1.057-2.902-1.779-4.94-2.12a9.106 9.106 0 0 0 .896 3.443c2.349 2.184 5.193 3.81 8.24 4.349Z"/>
    <path fill="#020202" d="M53.658 95.733c1.987-1.025 4.691-3.108 3.733-5.43-5.035 1.538-8.184-4.9-3.549-7.191.52-.26 2.571-.722 4.64-2.026 4.515-2.842 10.654-7.677 12.006-9.07.914-.937 1.683-2.026 2.07-3.222-4.457-3.582-16.36-2.86-20.805 4.222-3.701 5.9-3.142 10.35 1.01 20.065.406.956.698 1.836.895 2.652Z"/>
    <path fill="#020202" d="M52.502 67.46c-4.127-1.387-8.996-.849-12.38 1.886-5.663 4.576-5.752 13.412-10.66 18.786-2.456 2.69-5.897 4.247-9.294 5.576-3.396 1.33-6.913 2.539-9.821 4.735-2.908 2.196-5.162 5.64-4.857 9.267.267 3.221 2.552 6.051 5.415 7.576 2.864 1.526 6.222 1.88 9.454 1.665 8.209-.545 16.1-4.766 21.09-11.286 4.99-6.52 6.996-15.223 5.358-23.261-.438-2.146-1.123-4.33-.749-6.488.375-2.159 2.298-4.266 4.463-3.9 2.959.507 5.695 8.995 8.444 4.134 2.508-4.425-2.94-7.507-6.463-8.69Z"/>
    <path stroke="#020202" stroke-linecap="round" stroke-linejoin="round" stroke-miterlimit="10" stroke-width=".636" d="M74.658 81.27c-.92 2.405-.33 5.31 1.467 7.165-1.829 0-3.65-.007-5.479-.007M67.941 81.111c-.228.494-.45.988-.68 1.475M67.072 90.537c.045 2.158 1.968 4.108 4.133 4.19"/>
    <path fill="#B0DFFF" d="M104.123 154.536c1.79-.696 3.549-1.627 5.231-2.576.305-.171 2.978-1.665 1.619-1.969-2.292-.513-5.212 1.646-8.717 2.488-3.504.842-4.006-2.469-2.488-4.165 1.517-1.697 4.063-5.399-.724-2.659-2.171 1.241-2.578 4.634-6.031 6.602-9.879 5.634-24.887 13.065-24.887 13.065L56.203 135.73a1470.38 1470.38 0 0 0-13.58 4.191c1.708 4.88 3.905 10.76 6.431 16.615 9.365 21.711 13.682 25.027 17.726 23.185 8.698-3.968 15.376-9.064 25.922-14.779 9.713-5.266 13.135-5.374 15.821-6.836 3.256-1.779 2.875-2.716 3.085-4.653.171-1.639-6.336 1.165-6.273.469 0 0 .254-.108.661-.291"/>
    <path stroke="#FF391F" stroke-linecap="round" stroke-linejoin="round" stroke-miterlimit="10" stroke-width=".636" d="M105.741 156.902a14.337 14.337 0 0 0 5.943-2.367M103.792 154.643c1.117-.393 2.235-.792 3.352-1.184"/>
    <path stroke="#64B9FF" stroke-linecap="round" stroke-linejoin="round" stroke-miterlimit="10" stroke-width=".636" d="M54.621 123.793c1.194 3.798 2.387 7.602 3.58 11.4"/>
    <path fill="#006CED" d="m127.321 73.015.508-48.94-37.013-.368c-3.923-.038-7.123 3.133-7.104 7.052l.159 30.711h39.158l4.292 11.545Z"/>
    <path fill="#B0DFFF" d="M92.086 33.252c16.056-2.089 16.405-18.793 20.945-17.4 4.539 1.392-3.492 17.052-3.492 17.052s12.913-.348 14.659 2.089c1.746 2.437-1.048 4.525-1.048 4.525s3.841 3.134-1.047 6.963c0 0 1.047 3.83-3.492 5.918-4.539 2.089-31.769 1.045-31.769 1.045l5.244-20.192Z"/>
    <path stroke="#FF391F" stroke-linecap="round" stroke-linejoin="round" stroke-miterlimit="10" stroke-width=".636" d="M112.79 34.873c-.883.17-1.797.348-2.54.855-.743.506-1.276 1.436-1.035 2.303.166.59.654 1.051 1.213 1.31.559.26 1.175.355 1.79.425 2.883.335 5.809.278 8.673-.165M109.875 40.695c-.883.279-1.797.564-2.514 1.152-.718.589-1.213 1.545-.972 2.437.197.74.857 1.291 1.575 1.564.717.272 1.505.31 2.273.348l11.611.532M108.098 47.904c-.648.323-1.308.665-1.759 1.228-.451.564-.628 1.412-.209 2 .47.671 1.428.722 2.247.716 2.616-.038 5.225-.076 7.841-.108M99.635 46.273a11.345 11.345 0 0 0 5.669-3.975 11.3 11.3 0 0 0 2.26-6.532"/>
    <path fill="#FF391F" d="M186.747 156.003c-.807 7.33 1.777 14.792 6.221 20.685 4.444 5.893 10.628 10.311 17.275 13.552 2.99 1.456 6.152 2.709 9.479 2.975 3.326.266 6.844-.557 9.294-2.804 2.559-2.348 3.651-5.982 3.581-9.45-.07-3.469-1.181-6.83-2.438-10.064a104.147 104.147 0 0 0-10.272-19.825c-2.343-3.532-4.978-6.994-8.533-9.298-4.063-2.633-11.44-4.184-15.745-1.323-5.066 3.355-8.208 9.653-8.862 15.552Z"/>
    <path fill="#B0DFFF" d="m203.958 140.56-11.923-19.812-12.628 7.558s5.536 10.355 11.987 21.925c4.171-3.24 8.354-6.468 12.564-9.671Z"/>
    <path fill="#FF391F" d="M230.679 133.336c-3.029 13.35-9.092 36.516-9.092 36.516l-11.637-19.343c-3.841 4.127-7.72 8.228-11.25 12.608 3.587 6.191 6.927 11.717 9.25 15.046 8.082 11.583 10.355 16.622 19.7 14.102 9.346-2.519 19.199-47.852 19.199-47.852l.711-34.927c-7.79 4.463-13.847 10.508-16.881 23.85Z"/>
    <path stroke="#fff" stroke-linecap="round" stroke-linejoin="round" stroke-miterlimit="10" stroke-width=".636" d="M224.368 159.275c1.041 2.545 2.083 5.083 3.117 7.628"/>
    <path fill="#020202" d="m184.148 95.2-14.233.665 17.935 32.091 14.468-.563c2.527-.101 4.044-2.842 2.781-5.026l-13.294-22.995a8.39 8.39 0 0 0-7.657-4.171Z"/>
    <path stroke="#B0DFFF" stroke-linecap="round" stroke-linejoin="round" stroke-miterlimit="10" stroke-width=".636" d="M190.046 99.48c4.4 7.191 8.209 14.666 12.609 21.857"/>
    <path fill="#FF391F" d="m241.172 145.489-4.425 48.22 60.751-.083-4.47-58.929-17.859-30.521-27.616 5.317-6.381 35.996Z"/>
    <path stroke="#fff" stroke-linecap="round" stroke-linejoin="round" stroke-miterlimit="10" stroke-width=".636" d="M241.648 127.963c-.984 15.602-1.961 31.205-2.945 46.808"/>
    <path stroke="#64B9FF" stroke-linecap="round" stroke-linejoin="round" stroke-miterlimit="10" stroke-width=".636" d="M232.271 193.689h53.66"/>
    <path fill="#FF391F" d="M275.17 104.176c16.888 5.488 19.669 8.507 33.56 25.635 13.891 17.128 22.988 28.964 19.452 49.865-3.536 20.9-20.716 25.185-34.099 19.641-13.389-5.539-6.107-16.407.203-24.464 6.317-8.058 12.336-15.059 12.336-15.059l-30.474-35.022-.978-20.596Z"/>
    <path fill="#B0DFFF" d="m294.458 205.696 5.752-5.924c-3.765-3.494-7.657-6.849-11.504-10.254l-6.082 7.576c2.413 4.197 7.345 6.906 11.834 8.602Z"/>
    <path stroke="#fff" stroke-linecap="round" stroke-linejoin="round" stroke-miterlimit="10" stroke-width=".636" d="M286.458 135.9c3.105 3.621 6.216 7.242 9.32 10.862M295.842 173.447c-2.794 2.121-5.657 4.317-7.416 7.349-1.758 3.032-2.139 7.133.026 9.887"/>
    <path fill="#B0DFFF" d="M179.399 128.304c-5.053-8.058-5.555-19.641-1.009-26.192 4.545-6.545 3.282-.753 2.273 4.279l-1.01 5.038s2.527-2.519 7.327-2.013c4.799.507 2.78 3.02 2.78 3.02s3.2 3.569.756 4.032c-6.705 1.259-2.019 15.108-2.019 15.108l-9.098-3.272Z"/>
    <path stroke="#64B9FF" stroke-linecap="round" stroke-linejoin="round" stroke-miterlimit="10" stroke-width=".636" d="M189.176 113.12c-1.232-.943-3.06-.873-4.381-.057-1.32.817-2.158 2.266-2.507 3.773-.35 1.512-.254 3.088-.038 4.62M178.828 112.043c-1.359 1.146-2.051 3.026-1.759 4.779M188.084 129.014c1.581.487 2.819 1.93 3.054 3.563"/>
    <path fill="#B0DFFF" d="M264.264 90.878c-1.34-5.76 1.276-11.077 1.879-17.73-.838-.297-1.651-.69-2.343-1.227-1.739-1.355-2-3.659-2.438-5.672-.406-1.886-1.149-3.538-2.698-4.74-1.536-1.197-3.104-2.28-4.463-3.697-1.339-1.399-2.463-3.064-4.031-4.228-1.937-1.443-4.127-1.608-6.457-1.266-2.59.386-5.085.81-7.714.57a23.055 23.055 0 0 1-4.018-.747 13.928 13.928 0 0 0-2.33 4.12c-4.648 12.957-.572 11.957-7.803 19.78l8.425 2.323s-.121 12.046 10.215 11.875c10.336-.165 12.437 14.419 7.066 19.248 0 0 3.885 6.83 11.624 6.153 8.647-.76 15.993-11.47 15.993-11.47s-8.653-3.614-10.907-13.292Z"/>
    <path fill="#006CED" d="M243.96 91.897c2.648-.665 5.524-2.051 7.079-4.817 1.733-3.07.552-7.121 2.863-9.95 3.702-4.526 7.422.018 11.238 2.019 1.282-5.988 2.45-12.742-2.47-22.06-8.038-15.235-27.509-13.273-32.632-1.816 4.488 1.557 10.729.45 14.963.601.8.032 1.645.557 1.823 1.38 1.206 5.627 1.244 13.115-1.124 18.451-1.143 2.576-3.257 4.096-6.133 4.083-2.844-.013-6.431-2.12-9.307-1.43.146 2.525.209 15.133 13.7 13.538Z"/>
    <path fill="#B0DFFF" d="m252.074 63.319.489 10.45s7.847-.525 7.631-5.95c-.19-4.886-6.196-5.102-8.12-4.5Z"/>
    <path stroke="#020202" stroke-linecap="round" stroke-linejoin="round" stroke-miterlimit="10" stroke-width=".636" d="M231.689 62.621c-1.061 2.602-.661 5.792 1.193 7.9 1.854 2.107 5.155 2.892 7.669 1.645 2.514-1.253 3.867-4.55 2.737-7.12M227.098 65.635l3.257.59"/>
    <path stroke="#fff" stroke-linecap="round" stroke-linejoin="round" stroke-miterlimit="10" stroke-width=".636" d="M239.688 84.224a9.45 9.45 0 0 0 4.438-2.728c.94.994.768 2.81-.349 3.608"/>
    <path stroke="#020202" stroke-linecap="round" stroke-linejoin="round" stroke-miterlimit="10" stroke-width=".636" d="M237.23 66.217c.267.538.54 1.07.807 1.608"/>
    <path stroke="#006CED" stroke-linecap="round" stroke-linejoin="round" stroke-miterlimit="10" stroke-width=".636" d="M254.042 51.361c1.67-.873 3.346-1.747 5.016-2.627"/>
    <path stroke="#FF391F" stroke-linecap="round" stroke-linejoin="round" stroke-miterlimit="10" stroke-width=".636" d="M148.861 54.35c-2.806.702-5.237 2.778-6.361 5.437-1.124 2.658-.914 5.842.546 8.336.609 1.038 1.479 1.994 2.635 2.335 1.155.336 2.603-.145 3.022-1.272.33-.873-.032-1.892-.699-2.544-.666-.652-1.574-.994-2.488-1.197-5.13-1.145-13.187 4.4-15.123 13.66M177.501 90.934c4.984-5.937 12.266-9.906 19.967-10.88 3.085-.393 6.399-.266 9.034 1.373 2.635 1.646 4.253 5.19 2.908 7.982-.597 1.234-1.797 2.234-3.168 2.316-1.372.076-2.794-.962-2.889-2.329-.133-2.044 2.298-3.203 4.323-3.55 1.556-.267 3.187-.387 4.673.138 1.486.526 2.774 1.855 2.832 3.425M105.67 71.154c3.543 1.127 6.451 4.064 7.53 7.615M17.888 152.32c-2.267 3.804-3.028 8.476-2.089 12.799.946 4.323 3.58 8.26 7.231 10.779"/>
    <path stroke="#B0DFFF" stroke-linecap="round" stroke-linejoin="round" stroke-miterlimit="10" stroke-width=".636" d="m185.328 183.125-12.158.013-8.126.006-47.253.038h-6.609l-74.725.064"/>
</svg>
